<svg width="162" height="25" viewBox="0 0 162 25" fill="none" xmlns="http://www.w3.org/2000/svg">
<path d="M13.2304 0L23.8881 6.15327V18.4598L13.2304 24.6131L2.57259 18.4598V6.15327L13.2304 0Z" fill="#4D585E"/>
<path d="M38.4868 20H35.4901V7.82721C35.4901 6.97987 35.6555 6.26686 35.9861 5.68819C36.3237 5.10263 36.7956 4.66174 37.4018 4.36551C38.0149 4.0624 38.7417 3.91084 39.5822 3.91084C39.8577 3.91084 40.123 3.93151 40.3778 3.97284C40.6327 4.00729 40.8807 4.05206 41.1219 4.10718L41.0909 6.34953C40.96 6.31509 40.8222 6.29098 40.6775 6.2772C40.5328 6.26342 40.3641 6.25653 40.1712 6.25653C39.8129 6.25653 39.5064 6.31853 39.2515 6.44253C39.0035 6.55964 38.8141 6.73531 38.6832 6.96954C38.5523 7.20376 38.4868 7.48965 38.4868 7.82721V20ZM40.7188 8.81922V10.9272H33.8264V8.81922H40.7188ZM41.8039 14.5233V14.3063C41.8039 13.4865 41.921 12.7322 42.1552 12.0433C42.3894 11.3475 42.7304 10.7447 43.1782 10.2349C43.626 9.72512 44.1771 9.32901 44.8316 9.04656C45.486 8.75722 46.2369 8.61255 47.0842 8.61255C47.9316 8.61255 48.6859 8.75722 49.3473 9.04656C50.0086 9.32901 50.5632 9.72512 51.0109 10.2349C51.4656 10.7447 51.8101 11.3475 52.0443 12.0433C52.2785 12.7322 52.3956 13.4865 52.3956 14.3063V14.5233C52.3956 15.3362 52.2785 16.0905 52.0443 16.7863C51.8101 17.4752 51.4656 18.078 51.0109 18.5947C50.5632 19.1044 50.0121 19.5006 49.3576 19.783C48.7031 20.0654 47.9523 20.2067 47.1049 20.2067C46.2576 20.2067 45.5032 20.0654 44.8419 19.783C44.1874 19.5006 43.6329 19.1044 43.1782 18.5947C42.7304 18.078 42.3894 17.4752 42.1552 16.7863C41.921 16.0905 41.8039 15.3362 41.8039 14.5233ZM44.7799 14.3063V14.5233C44.7799 14.9917 44.8212 15.4292 44.9039 15.8356C44.9866 16.2421 45.1174 16.6003 45.2966 16.9103C45.4826 17.2134 45.7237 17.4511 46.0199 17.6233C46.3161 17.7955 46.6778 17.8816 47.1049 17.8816C47.5182 17.8816 47.873 17.7955 48.1693 17.6233C48.4655 17.4511 48.7031 17.2134 48.8823 16.9103C49.0614 16.6003 49.1923 16.2421 49.2749 15.8356C49.3645 15.4292 49.4093 14.9917 49.4093 14.5233V14.3063C49.4093 13.8516 49.3645 13.4245 49.2749 13.0249C49.1923 12.6185 49.0579 12.2603 48.8719 11.9503C48.6928 11.6334 48.4551 11.3854 48.1589 11.2062C47.8627 11.0271 47.5045 10.9376 47.0842 10.9376C46.664 10.9376 46.3058 11.0271 46.0096 11.2062C45.7202 11.3854 45.4826 11.6334 45.2966 11.9503C45.1174 12.2603 44.9866 12.6185 44.9039 13.0249C44.8212 13.4245 44.7799 13.8516 44.7799 14.3063ZM53.7493 14.5233V14.3063C53.7493 13.4865 53.8664 12.7322 54.1006 12.0433C54.3349 11.3475 54.6759 10.7447 55.1237 10.2349C55.5714 9.72512 56.1226 9.32901 56.777 9.04656C57.4315 8.75722 58.1824 8.61255 59.0297 8.61255C59.877 8.61255 60.6314 8.75722 61.2927 9.04656C61.9541 9.32901 62.5086 9.72512 62.9564 10.2349C63.4111 10.7447 63.7555 11.3475 63.9897 12.0433C64.224 12.7322 64.3411 13.4865 64.3411 14.3063V14.5233C64.3411 15.3362 64.224 16.0905 63.9897 16.7863C63.7555 17.4752 63.4111 18.078 62.9564 18.5947C62.5086 19.1044 61.9575 19.5006 61.3031 19.783C60.6486 20.0654 59.8977 20.2067 59.0504 20.2067C58.203 20.2067 57.4487 20.0654 56.7873 19.783C56.1329 19.5006 55.5783 19.1044 55.1237 18.5947C54.6759 18.078 54.3349 17.4752 54.1006 16.7863C53.8664 16.0905 53.7493 15.3362 53.7493 14.5233ZM56.7253 14.3063V14.5233C56.7253 14.9917 56.7667 15.4292 56.8493 15.8356C56.932 16.2421 57.0629 16.6003 57.242 16.9103C57.428 17.2134 57.6691 17.4511 57.9654 17.6233C58.2616 17.7955 58.6232 17.8816 59.0504 17.8816C59.4637 17.8816 59.8185 17.7955 60.1147 17.6233C60.4109 17.4511 60.6486 17.2134 60.8277 16.9103C61.0068 16.6003 61.1377 16.2421 61.2204 15.8356C61.3099 15.4292 61.3547 14.9917 61.3547 14.5233V14.3063C61.3547 13.8516 61.3099 13.4245 61.2204 13.0249C61.1377 12.6185 61.0034 12.2603 60.8174 11.9503C60.6383 11.6334 60.4006 11.3854 60.1044 11.2062C59.8081 11.0271 59.4499 10.9376 59.0297 10.9376C58.6095 10.9376 58.2512 11.0271 57.955 11.2062C57.6657 11.3854 57.428 11.6334 57.242 11.9503C57.0629 12.2603 56.932 12.6185 56.8493 13.0249C56.7667 13.4245 56.7253 13.8516 56.7253 14.3063ZM72.7732 17.5613V4.12784H75.7699V20H73.0728L72.7732 17.5613ZM65.7051 14.5439V14.3269C65.7051 13.4727 65.8015 12.6977 65.9944 12.0019C66.1873 11.2992 66.4698 10.6965 66.8418 10.1936C67.2138 9.69068 67.6719 9.30145 68.2161 9.02589C68.7603 8.75033 69.3804 8.61255 70.0761 8.61255C70.7306 8.61255 71.3024 8.75033 71.7915 9.02589C72.2875 9.30145 72.7077 9.69412 73.0522 10.2039C73.4035 10.7068 73.686 11.3027 73.8995 11.9916C74.1131 12.6736 74.2681 13.421 74.3645 14.2339V14.7093C74.2681 15.4877 74.1131 16.2111 73.8995 16.8793C73.686 17.5475 73.4035 18.1331 73.0522 18.636C72.7077 19.132 72.2875 19.5178 71.7915 19.7933C71.2955 20.0689 70.7168 20.2067 70.0555 20.2067C69.3597 20.2067 68.7397 20.0654 68.1955 19.783C67.6581 19.5006 67.2034 19.1044 66.8314 18.5947C66.4663 18.0849 66.1873 17.4855 65.9944 16.7966C65.8015 16.1077 65.7051 15.3568 65.7051 14.5439ZM68.6811 14.3269V14.5439C68.6811 15.0055 68.7156 15.4361 68.7845 15.8356C68.8602 16.2352 68.9808 16.59 69.1461 16.9C69.3184 17.2031 69.5388 17.4408 69.8075 17.613C70.083 17.7783 70.4171 17.861 70.8098 17.861C71.3196 17.861 71.7398 17.7473 72.0705 17.52C72.4012 17.2858 72.6526 16.9654 72.8248 16.559C73.0039 16.1525 73.1073 15.6841 73.1348 15.1536V13.7999C73.1142 13.3659 73.0522 12.9767 72.9488 12.6323C72.8524 12.2809 72.7077 11.9813 72.5148 11.7333C72.3288 11.4852 72.0946 11.2924 71.8122 11.1546C71.5366 11.0168 71.2094 10.9479 70.8305 10.9479C70.4447 10.9479 70.114 11.0375 69.8385 11.2166C69.5629 11.3888 69.339 11.6265 69.1668 11.9296C69.0015 12.2327 68.8775 12.5909 68.7948 13.0043C68.719 13.4107 68.6811 13.8516 68.6811 14.3269ZM88.511 20.2067C87.643 20.2067 86.8645 20.0689 86.1756 19.7933C85.4867 19.5109 84.9012 19.1217 84.4189 18.6257C83.9436 18.1296 83.5785 17.5544 83.3236 16.9C83.0687 16.2386 82.9413 15.536 82.9413 14.7919V14.3786C82.9413 13.5313 83.0618 12.7563 83.3029 12.0536C83.544 11.3509 83.8885 10.7412 84.3363 10.2246C84.791 9.7079 85.3421 9.31178 85.9896 9.03622C86.6372 8.75378 87.3674 8.61255 88.1803 8.61255C88.9725 8.61255 89.6752 8.74344 90.2883 9.00522C90.9015 9.267 91.4147 9.63901 91.828 10.1212C92.2482 10.6035 92.5651 11.1821 92.7787 11.8573C92.9923 12.5255 93.099 13.2695 93.099 14.0893V15.3293H84.2123V13.3453H90.1747V13.1179C90.1747 12.7046 90.0989 12.336 89.9473 12.0123C89.8027 11.6816 89.5822 11.4198 89.286 11.2269C88.9898 11.034 88.6109 10.9376 88.1493 10.9376C87.7566 10.9376 87.4191 11.0237 87.1366 11.1959C86.8542 11.3681 86.6234 11.6093 86.4443 11.9193C86.2721 12.2293 86.1412 12.5944 86.0516 13.0146C85.969 13.4279 85.9276 13.8826 85.9276 14.3786V14.7919C85.9276 15.2397 85.9896 15.6531 86.1136 16.032C86.2445 16.4109 86.4271 16.7381 86.6613 17.0136C86.9024 17.2892 87.1918 17.5028 87.5293 17.6543C87.8738 17.8059 88.263 17.8816 88.697 17.8816C89.2343 17.8816 89.7338 17.7783 90.1953 17.5716C90.6638 17.3581 91.0668 17.0377 91.4043 16.6106L92.851 18.1813C92.6168 18.5189 92.2965 18.8427 91.89 19.1527C91.4905 19.4627 91.0082 19.7176 90.4433 19.9173C89.8784 20.1102 89.2343 20.2067 88.511 20.2067ZM97.1911 8.81922L99.0408 12.2189L100.942 8.81922H104.114L100.952 14.2856L104.259 20H101.076L99.0614 16.404L97.0464 20H93.8637L97.1704 14.2856L94.0084 8.81922H97.1911ZM108.537 10.9686V24.2987H105.561V8.81922H108.32L108.537 10.9686ZM115.616 14.2856V14.5026C115.616 15.3155 115.519 16.0698 115.326 16.7656C115.14 17.4614 114.865 18.0676 114.5 18.5843C114.134 19.0941 113.68 19.4937 113.136 19.783C112.598 20.0654 111.978 20.2067 111.276 20.2067C110.594 20.2067 110.001 20.0689 109.498 19.7933C108.995 19.5178 108.572 19.132 108.227 18.636C107.89 18.1331 107.618 17.551 107.411 16.8896C107.204 16.2283 107.046 15.5187 106.936 14.7609V14.1926C107.046 13.3797 107.204 12.6357 107.411 11.9606C107.618 11.2786 107.89 10.6896 108.227 10.1936C108.572 9.69068 108.992 9.30145 109.488 9.02589C109.991 8.75033 110.58 8.61255 111.255 8.61255C111.964 8.61255 112.588 8.74689 113.125 9.01556C113.669 9.28423 114.124 9.67001 114.489 10.1729C114.861 10.6758 115.14 11.2751 115.326 11.9709C115.519 12.6667 115.616 13.4383 115.616 14.2856ZM112.629 14.5026V14.2856C112.629 13.8103 112.588 13.3728 112.505 12.9733C112.429 12.5668 112.305 12.212 112.133 11.9089C111.968 11.6058 111.747 11.3716 111.472 11.2062C111.203 11.034 110.876 10.9479 110.49 10.9479C110.084 10.9479 109.736 11.0134 109.447 11.1442C109.164 11.2751 108.933 11.4646 108.754 11.7126C108.575 11.9606 108.441 12.2568 108.351 12.6013C108.262 12.9457 108.207 13.3349 108.186 13.7689V15.2053C108.22 15.7151 108.317 16.1732 108.475 16.5796C108.634 16.9792 108.878 17.2961 109.209 17.5303C109.54 17.7645 109.974 17.8816 110.511 17.8816C110.904 17.8816 111.234 17.7955 111.503 17.6233C111.772 17.4442 111.989 17.1996 112.154 16.8896C112.326 16.5796 112.447 16.2214 112.516 15.815C112.591 15.4085 112.629 14.9711 112.629 14.5026ZM120.607 4.12784V20H117.62V4.12784H120.607ZM122.591 14.5233V14.3063C122.591 13.4865 122.708 12.7322 122.942 12.0433C123.176 11.3475 123.517 10.7447 123.965 10.2349C124.413 9.72512 124.964 9.32901 125.618 9.04656C126.273 8.75722 127.024 8.61255 127.871 8.61255C128.718 8.61255 129.473 8.75722 130.134 9.04656C130.795 9.32901 131.35 9.72512 131.798 10.2349C132.252 10.7447 132.597 11.3475 132.831 12.0433C133.065 12.7322 133.182 13.4865 133.182 14.3063V14.5233C133.182 15.3362 133.065 16.0905 132.831 16.7863C132.597 17.4752 132.252 18.078 131.798 18.5947C131.35 19.1044 130.799 19.5006 130.144 19.783C129.49 20.0654 128.739 20.2067 127.892 20.2067C127.044 20.2067 126.29 20.0654 125.629 19.783C124.974 19.5006 124.42 19.1044 123.965 18.5947C123.517 18.078 123.176 17.4752 122.942 16.7863C122.708 16.0905 122.591 15.3362 122.591 14.5233ZM125.567 14.3063V14.5233C125.567 14.9917 125.608 15.4292 125.691 15.8356C125.773 16.2421 125.904 16.6003 126.083 16.9103C126.269 17.2134 126.51 17.4511 126.807 17.6233C127.103 17.7955 127.465 17.8816 127.892 17.8816C128.305 17.8816 128.66 17.7955 128.956 17.6233C129.252 17.4511 129.49 17.2134 129.669 16.9103C129.848 16.6003 129.979 16.2421 130.062 15.8356C130.151 15.4292 130.196 14.9917 130.196 14.5233V14.3063C130.196 13.8516 130.151 13.4245 130.062 13.0249C129.979 12.6185 129.845 12.2603 129.659 11.9503C129.48 11.6334 129.242 11.3854 128.946 11.2062C128.649 11.0271 128.291 10.9376 127.871 10.9376C127.451 10.9376 127.093 11.0271 126.796 11.2062C126.507 11.3854 126.269 11.6334 126.083 11.9503C125.904 12.2603 125.773 12.6185 125.691 13.0249C125.608 13.4245 125.567 13.8516 125.567 14.3063ZM137.987 11.2579V20H135.011V8.81922H137.812L137.987 11.2579ZM141.356 8.74689L141.305 11.5059C141.16 11.4852 140.984 11.468 140.778 11.4542C140.578 11.4336 140.395 11.4232 140.23 11.4232C139.81 11.4232 139.444 11.4784 139.134 11.5886C138.831 11.6919 138.576 11.8469 138.37 12.0536C138.17 12.2603 138.018 12.5117 137.915 12.8079C137.819 13.1042 137.764 13.4417 137.75 13.8206L137.15 13.6346C137.15 12.9113 137.223 12.2465 137.367 11.6403C137.512 11.0271 137.722 10.4932 137.998 10.0386C138.28 9.5839 138.625 9.23256 139.031 8.98456C139.438 8.73656 139.903 8.61255 140.426 8.61255C140.592 8.61255 140.76 8.62633 140.933 8.65389C141.105 8.67455 141.246 8.70555 141.356 8.74689ZM147.701 20.2067C146.833 20.2067 146.054 20.0689 145.366 19.7933C144.677 19.5109 144.091 19.1217 143.609 18.6257C143.134 18.1296 142.768 17.5544 142.514 16.9C142.259 16.2386 142.131 15.536 142.131 14.7919V14.3786C142.131 13.5313 142.252 12.7563 142.493 12.0536C142.734 11.3509 143.078 10.7412 143.526 10.2246C143.981 9.7079 144.532 9.31178 145.18 9.03622C145.827 8.75378 146.557 8.61255 147.37 8.61255C148.162 8.61255 148.865 8.74344 149.478 9.00522C150.091 9.267 150.605 9.63901 151.018 10.1212C151.438 10.6035 151.755 11.1821 151.969 11.8573C152.182 12.5255 152.289 13.2695 152.289 14.0893V15.3293H143.402V13.3453H149.365V13.1179C149.365 12.7046 149.289 12.336 149.137 12.0123C148.993 11.6816 148.772 11.4198 148.476 11.2269C148.18 11.034 147.801 10.9376 147.339 10.9376C146.947 10.9376 146.609 11.0237 146.327 11.1959C146.044 11.3681 145.813 11.6093 145.634 11.9193C145.462 12.2293 145.331 12.5944 145.242 13.0146C145.159 13.4279 145.118 13.8826 145.118 14.3786V14.7919C145.118 15.2397 145.18 15.6531 145.304 16.032C145.434 16.4109 145.617 16.7381 145.851 17.0136C146.092 17.2892 146.382 17.5028 146.719 17.6543C147.064 17.8059 147.453 17.8816 147.887 17.8816C148.424 17.8816 148.924 17.7783 149.385 17.5716C149.854 17.3581 150.257 17.0377 150.594 16.6106L152.041 18.1813C151.807 18.5189 151.486 18.8427 151.08 19.1527C150.68 19.4627 150.198 19.7176 149.633 19.9173C149.068 20.1102 148.424 20.2067 147.701 20.2067ZM156.96 11.2579V20H153.984V8.81922H156.784L156.96 11.2579ZM160.328 8.74689L160.277 11.5059C160.132 11.4852 159.956 11.468 159.75 11.4542C159.55 11.4336 159.367 11.4232 159.202 11.4232C158.782 11.4232 158.417 11.4784 158.107 11.5886C157.804 11.6919 157.549 11.8469 157.342 12.0536C157.142 12.2603 156.991 12.5117 156.887 12.8079C156.791 13.1042 156.736 13.4417 156.722 13.8206L156.123 13.6346C156.123 12.9113 156.195 12.2465 156.34 11.6403C156.484 11.0271 156.694 10.4932 156.97 10.0386C157.252 9.5839 157.597 9.23256 158.003 8.98456C158.41 8.73656 158.875 8.61255 159.398 8.61255C159.564 8.61255 159.732 8.62633 159.905 8.65389C160.077 8.67455 160.218 8.70555 160.328 8.74689Z" fill="#4D585E"/>
</svg>
