<svg width="500" height="500" viewBox="0 0 500 500" fill="none" xmlns="http://www.w3.org/2000/svg">
<circle cx="250" cy="250" r="250" fill="#001119"/>
<path d="M267.562 295.519H227.09C227.196 286.003 227.936 277.808 229.312 270.935C230.793 263.957 233.28 257.666 236.771 252.062C240.369 246.458 245.13 240.907 251.055 235.409C256.028 230.968 260.367 226.738 264.07 222.72C267.773 218.703 270.683 214.579 272.799 210.349C274.915 206.014 275.973 201.203 275.973 195.917C275.973 189.784 275.021 184.709 273.117 180.691C271.318 176.567 268.567 173.448 264.863 171.333C261.266 169.219 256.716 168.161 251.214 168.161C246.664 168.161 242.432 169.166 238.517 171.175C234.602 173.078 231.375 176.039 228.836 180.056C226.402 184.074 225.132 189.361 225.027 195.917H179C179.317 181.431 182.65 169.483 188.999 160.073C195.453 150.556 204.077 143.525 214.869 138.978C225.661 134.326 237.777 132 251.214 132C266.027 132 278.724 134.432 289.305 139.296C299.886 144.054 307.98 151.085 313.588 160.39C319.196 169.589 322 180.797 322 194.013C322 203.212 320.201 211.407 316.604 218.597C313.006 225.681 308.298 232.289 302.478 238.422C296.659 244.555 290.257 250.899 283.274 257.454C277.243 262.847 273.117 268.504 270.895 274.425C268.778 280.346 267.667 287.377 267.562 295.519ZM222.329 344.527C222.329 337.76 224.656 332.156 229.312 327.715C233.967 323.168 240.21 320.895 248.04 320.895C255.764 320.895 261.954 323.168 266.609 327.715C271.371 332.156 273.751 337.76 273.751 344.527C273.751 351.082 271.371 356.634 266.609 361.18C261.954 365.727 255.764 368 248.04 368C240.21 368 233.967 365.727 229.312 361.18C224.656 356.634 222.329 351.082 222.329 344.527Z" fill="#82F2FF"/>
</svg>
